<?xml version="1.0" encoding="iso-8859-1"?>
<!-- Generator: Adobe Illustrator 18.1.1, SVG Export Plug-In . SVG Version: 6.00 Build 0)  -->
<svg version="1.1" id="Capa_1" xmlns="http://www.w3.org/2000/svg" xmlns:xlink="http://www.w3.org/1999/xlink" x="0px" y="0px"
	 viewBox="0 0 558.144 558.144" style="enable-background:new 0 0 558.144 558.144;" xml:space="preserve">
<g>
	<g>
		<path style="fill:#010002;" d="M509.795,358.632c5.307,2.856,9.486,6.938,12.545,12.24c3.063,5.304,4.594,11.424,4.594,18.36
			v135.864c0,9.384-2.652,17.235-7.957,23.562c-5.307,6.324-12.035,9.486-20.195,9.486H59.363c-8.16,0-14.892-3.162-20.196-9.486
			s-7.956-14.178-7.956-23.561V389.232c0-6.938,1.53-13.158,4.59-18.666s7.446-9.486,13.158-11.937l171.972-80.169
			c-20.808-12.24-37.434-29.886-49.878-52.938s-18.666-49.062-18.666-78.03c0-20.4,3.264-39.576,9.792-57.528
			c6.528-17.952,15.504-33.558,26.928-46.818c11.424-13.26,24.888-23.766,40.392-31.518C245.003,3.876,261.527,0,279.071,0
			c17.544,0,34.068,3.876,49.572,11.628s28.969,18.258,40.393,31.518c11.424,13.26,20.4,28.866,26.928,46.818
			c6.527,17.952,9.791,37.128,9.791,57.528c0,28.152-6.117,53.754-18.357,76.806s-28.355,40.902-48.35,53.55L509.795,358.632
			L509.795,358.632z"/>
	</g>
</g>
<g>
</g>
<g>
</g>
<g>
</g>
<g>
</g>
<g>
</g>
<g>
</g>
<g>
</g>
<g>
</g>
<g>
</g>
<g>
</g>
<g>
</g>
<g>
</g>
<g>
</g>
<g>
</g>
<g>
</g>
</svg>
